<svg width="30" height="30" viewBox="0 0 30 30" fill="none" xmlns="http://www.w3.org/2000/svg">
<circle cx="15" cy="15" r="15" fill="#AEAEAE"/>
<g clip-path="url(#clip0_1094_506)">
<path d="M19.5834 10.4165H19.5917M10.8334 6.6665H19.1667C21.4679 6.6665 23.3334 8.53198 23.3334 10.8332V19.1665C23.3334 21.4677 21.4679 23.3332 19.1667 23.3332H10.8334C8.53223 23.3332 6.66675 21.4677 6.66675 19.1665V10.8332C6.66675 8.53198 8.53223 6.6665 10.8334 6.6665ZM18.3334 14.4748C18.4363 15.1684 18.3178 15.8767 17.9949 16.499C17.672 17.1213 17.161 17.626 16.5348 17.9412C15.9085 18.2564 15.1988 18.3662 14.5066 18.2548C13.8144 18.1434 13.1749 17.8166 12.6791 17.3208C12.1833 16.825 11.8565 16.1856 11.7451 15.4933C11.6338 14.8011 11.7435 14.0914 12.0587 13.4651C12.3739 12.8389 12.8786 12.328 13.5009 12.005C14.1232 11.6821 14.8315 11.5637 15.5251 11.6665C16.2325 11.7714 16.8875 12.1011 17.3932 12.6068C17.8989 13.1125 18.2285 13.7674 18.3334 14.4748Z" stroke="black" stroke-width="2" stroke-linecap="round" stroke-linejoin="round"/>
</g>
<defs>
<clipPath id="clip0_1094_506">
<rect width="20" height="20" fill="white" transform="translate(5 5)"/>
</clipPath>
</defs>
</svg>
